<?xml version="1.0" standalone="no"?><!DOCTYPE svg PUBLIC "-//W3C//DTD SVG 1.1//EN" "http://www.w3.org/Graphics/SVG/1.1/DTD/svg11.dtd"><svg t="1527732451469" class="icon" style="" viewBox="0 0 1024 1024" version="1.1" xmlns="http://www.w3.org/2000/svg" p-id="4538" xmlns:xlink="http://www.w3.org/1999/xlink" width="50" height="50"><defs><style type="text/css"></style></defs><path d="M517.12 1017.344c-276.48 0-501.76-225.28-501.76-501.76s225.28-501.76 501.76-501.76 501.76 225.28 501.76 501.76-225.28 501.76-501.76 501.76z m0-952.32c-248.32 0-450.56 202.24-450.56 450.56s202.24 450.56 450.56 450.56 450.56-202.24 450.56-450.56-202.24-450.56-450.56-450.56z" p-id="4539"></path><path d="M517.12 693.76c-28.672 0-57.344-10.752-79.36-32.768L256.512 479.744c-43.52-43.52-43.52-114.688 0-158.72 9.728-10.24 26.112-10.24 36.352-0.512s10.24 26.112 0.512 36.352c-23.552 24.064-24.064 62.976 0 87.04l181.248 181.248c24.064 23.552 62.976 23.552 86.528 0L742.4 444.416c23.552-24.064 23.552-62.976 0-86.528-10.24-10.24-10.24-26.112 0-36.352s26.112-10.24 36.352 0c43.52 43.52 43.52 114.688 0 158.72l-181.248 180.736c-22.528 22.016-51.2 32.768-80.384 32.768zM711.168 816.128s-0.512 0 0 0L322.56 809.472c-14.336 0-25.6-11.776-25.088-26.112 0-13.824 11.776-25.088 25.6-25.088h0.512l388.096 6.656c14.336 0 25.6 11.776 25.088 26.112 0 13.824-11.776 25.088-25.6 25.088z" p-id="4540"></path></svg>